<svg width="49" height="16" viewBox="0 0 49 16" fill="none" xmlns="http://www.w3.org/2000/svg">
<path d="M4.224 12.096C3.40267 12.096 2.67733 11.9573 2.048 11.68C1.41867 11.392 0.922667 10.9867 0.56 10.464C0.197333 9.93067 0.0106667 9.28534 0 8.528H2.16C2.18133 9.05067 2.368 9.49334 2.72 9.856C3.08267 10.208 3.57867 10.384 4.208 10.384C4.752 10.384 5.184 10.256 5.504 10C5.824 9.73334 5.984 9.38134 5.984 8.944C5.984 8.48534 5.84 8.128 5.552 7.872C5.27467 7.616 4.90133 7.408 4.432 7.248C3.96267 7.088 3.46133 6.91734 2.928 6.736C2.064 6.43734 1.40267 6.05334 0.944 5.584C0.496 5.11467 0.272 4.49067 0.272 3.712C0.261333 3.05067 0.416 2.48534 0.736 2.016C1.06667 1.536 1.51467 1.168 2.08 0.912003C2.64533 0.645336 3.296 0.512003 4.032 0.512003C4.77867 0.512003 5.43467 0.645336 6 0.912003C6.576 1.17867 7.024 1.552 7.344 2.032C7.67467 2.512 7.85067 3.08267 7.872 3.744H5.68C5.66933 3.34934 5.51467 3.00267 5.216 2.704C4.928 2.39467 4.52267 2.24 4 2.24C3.552 2.22934 3.17333 2.34134 2.864 2.576C2.56533 2.8 2.416 3.13067 2.416 3.568C2.416 3.94134 2.53333 4.24 2.768 4.464C3.00267 4.67734 3.32267 4.85867 3.728 5.008C4.13333 5.15734 4.59733 5.31734 5.12 5.488C5.67467 5.68 6.18133 5.904 6.64 6.16C7.09867 6.416 7.46667 6.75734 7.744 7.184C8.02133 7.6 8.16 8.13867 8.16 8.8C8.16 9.38667 8.01067 9.93067 7.712 10.432C7.41333 10.9333 6.97067 11.3387 6.384 11.648C5.79733 11.9467 5.07733 12.096 4.224 12.096Z" fill="white"/>
<path d="M11.0029 2.736C10.6295 2.736 10.3202 2.624 10.0749 2.4C9.84021 2.176 9.72288 1.89334 9.72288 1.552C9.72288 1.21067 9.84021 0.933336 10.0749 0.720002C10.3202 0.496003 10.6295 0.384003 11.0029 0.384003C11.3762 0.384003 11.6802 0.496003 11.9149 0.720002C12.1602 0.933336 12.2829 1.21067 12.2829 1.552C12.2829 1.89334 12.1602 2.176 11.9149 2.4C11.6802 2.624 11.3762 2.736 11.0029 2.736ZM9.97888 11.904V3.968H12.0269V11.904H9.97888Z" fill="white"/>
<path d="M17.5245 9.536C17.1405 9.536 16.7832 9.49334 16.4525 9.408L15.8605 10C16.0418 10.096 16.2872 10.176 16.5965 10.24C16.9058 10.304 17.4072 10.368 18.1005 10.432C19.1565 10.528 19.9245 10.7787 20.4045 11.184C20.8845 11.5893 21.1245 12.1493 21.1245 12.864C21.1245 13.3333 20.9965 13.776 20.7405 14.192C20.4845 14.6187 20.0898 14.96 19.5565 15.216C19.0232 15.4827 18.3405 15.616 17.5085 15.616C16.3778 15.616 15.4658 15.4027 14.7725 14.976C14.0792 14.56 13.7325 13.9307 13.7325 13.088C13.7325 12.3733 14.0792 11.7547 14.7725 11.232C14.5592 11.136 14.3725 11.0347 14.2125 10.928C14.0632 10.8213 13.9298 10.7093 13.8125 10.592V10.224L15.2045 8.752C14.5858 8.208 14.2765 7.50934 14.2765 6.656C14.2765 6.12267 14.4045 5.63734 14.6605 5.2C14.9272 4.76267 15.3005 4.416 15.7805 4.16C16.2605 3.904 16.8418 3.776 17.5245 3.776C17.9725 3.776 18.3885 3.84 18.7725 3.968H21.7805V5.216L20.4205 5.312C20.6338 5.71734 20.7405 6.16534 20.7405 6.656C20.7405 7.18934 20.6125 7.67467 20.3565 8.112C20.1005 8.54934 19.7272 8.896 19.2365 9.152C18.7565 9.408 18.1858 9.536 17.5245 9.536ZM17.5245 7.968C17.9405 7.968 18.2818 7.856 18.5485 7.632C18.8258 7.408 18.9645 7.088 18.9645 6.672C18.9645 6.256 18.8258 5.936 18.5485 5.712C18.2818 5.488 17.9405 5.376 17.5245 5.376C17.0872 5.376 16.7352 5.488 16.4685 5.712C16.2018 5.936 16.0685 6.256 16.0685 6.672C16.0685 7.088 16.2018 7.408 16.4685 7.632C16.7352 7.856 17.0872 7.968 17.5245 7.968ZM15.6045 12.88C15.6045 13.2747 15.7858 13.568 16.1485 13.76C16.5218 13.9627 16.9752 14.064 17.5085 14.064C18.0205 14.064 18.4365 13.9573 18.7565 13.744C19.0765 13.5413 19.2365 13.264 19.2365 12.912C19.2365 12.624 19.1298 12.384 18.9165 12.192C18.7138 12 18.3032 11.8827 17.6845 11.84C17.2472 11.808 16.8418 11.76 16.4685 11.696C16.1592 11.8667 15.9352 12.0533 15.7965 12.256C15.6685 12.4587 15.6045 12.6667 15.6045 12.88Z" fill="white"/>
<path d="M23.2739 11.904V3.968H25.0819L25.2419 5.312C25.4872 4.84267 25.8392 4.46934 26.2979 4.192C26.7672 3.91467 27.3165 3.776 27.9459 3.776C28.9272 3.776 29.6899 4.08534 30.2339 4.704C30.7779 5.32267 31.0499 6.22934 31.0499 7.424V11.904H29.0019V7.616C29.0019 6.93334 28.8632 6.41067 28.5859 6.048C28.3085 5.68534 27.8765 5.504 27.2899 5.504C26.7139 5.504 26.2392 5.70667 25.8659 6.112C25.5032 6.51734 25.3219 7.08267 25.3219 7.808V11.904H23.2739Z" fill="white"/>
<path d="M37.9248 2.736C37.5514 2.736 37.2421 2.624 36.9967 2.4C36.7621 2.176 36.6447 1.89334 36.6447 1.552C36.6447 1.21067 36.7621 0.933336 36.9967 0.720002C37.2421 0.496003 37.5514 0.384003 37.9248 0.384003C38.2981 0.384003 38.6021 0.496003 38.8368 0.720002C39.0821 0.933336 39.2048 1.21067 39.2048 1.552C39.2048 1.89334 39.0821 2.176 38.8368 2.4C38.6021 2.624 38.2981 2.736 37.9248 2.736ZM36.9007 11.904V3.968H38.9487V11.904H36.9007Z" fill="white"/>
<path d="M41.0864 11.904V3.968H42.8944L43.0544 5.312C43.2997 4.84267 43.6517 4.46934 44.1104 4.192C44.5797 3.91467 45.129 3.776 45.7584 3.776C46.7397 3.776 47.5024 4.08534 48.0464 4.704C48.5904 5.32267 48.8624 6.22934 48.8624 7.424V11.904H46.8144V7.616C46.8144 6.93334 46.6757 6.41067 46.3984 6.048C46.121 5.68534 45.689 5.504 45.1024 5.504C44.5264 5.504 44.0517 5.70667 43.6784 6.112C43.3157 6.51734 43.1344 7.08267 43.1344 7.808V11.904H41.0864Z" fill="white"/>
</svg>
